<svg width="43" height="43" viewBox="0 0 43 43" fill="none" xmlns="http://www.w3.org/2000/svg">
<g clip-path="url(#clip0_17_10)">
<path d="M18.9479 26.2559C19.0383 26.5933 19.3856 26.7937 19.723 26.7034L27.1259 24.7198L29.1095 32.1227C29.1996 32.46 28.999 32.8064 28.6618 32.8968L21.2588 34.8804C16.8332 36.066 12.2844 33.4398 11.0985 29.0143C9.91263 24.5886 12.5388 20.039 16.9643 18.853L18.9479 26.2559ZM22.8313 8.69236C27.257 7.50663 31.8057 10.1329 32.9917 14.5585C34.1405 18.8459 31.7119 23.2498 27.5353 24.5989L27.1259 24.7198L25.1423 17.3168C25.0518 16.9795 24.7046 16.779 24.3672 16.8694L16.9643 18.853L14.981 11.451C14.8906 11.1136 15.0911 10.7664 15.4284 10.676L22.8313 8.69236Z" fill="#897FFF"/>
<path d="M15.4948 10.658C15.1208 10.7582 14.8989 11.1426 14.9991 11.5166L16.9649 18.853L24.3013 16.8873C24.6753 16.787 25.0597 17.009 25.1599 17.383L27.1257 24.7194C31.5515 23.5335 34.178 18.9844 32.9921 14.5586C31.8062 10.1328 27.257 7.5063 22.8312 8.69219L15.4948 10.658Z" fill="#897FFF"/>
</g>
<defs>
<clipPath id="clip0_17_10">
<rect width="35" height="35" fill="white" transform="translate(0 9.05867) rotate(-15)"/>
</clipPath>
</defs>
</svg>
